<?xml version="1.0" standalone="no"?>
<!DOCTYPE svg PUBLIC "-//W3C//DTD SVG 20010904//EN"
 "http://www.w3.org/TR/2001/REC-SVG-20010904/DTD/svg10.dtd">
<svg version="1.0" xmlns="http://www.w3.org/2000/svg"
 width="950.000000pt" height="950.000000pt" viewBox="0 0 950.000000 950.000000"
 preserveAspectRatio="xMidYMid meet">
<metadata>
Created by potrace 1.14, written by Peter Selinger 2001-2017
</metadata>
<g transform="translate(0.000000,950.000000) scale(0.100000,-0.100000)"
fill="#000000" stroke="none">
<path d="M4540 9311 c-25 -3 -66 -6 -92 -6 -27 0 -48 -2 -48 -5 0 -3 -17 -5
-37 -5 -21 1 -42 -1 -47 -3 -5 -3 -25 -6 -45 -7 -20 -1 -49 -5 -66 -8 -16 -4
-48 -9 -70 -12 -42 -6 -52 -7 -145 -26 -30 -6 -64 -13 -75 -15 -11 -2 -49 -11
-85 -19 -36 -9 -74 -17 -85 -19 -11 -2 -20 -4 -20 -5 0 -2 -11 -5 -25 -8 -36
-7 -39 -8 -105 -27 -33 -10 -78 -25 -100 -33 -22 -8 -47 -17 -55 -18 -26 -7
-144 -47 -175 -60 -16 -8 -50 -21 -75 -30 -51 -20 -102 -41 -144 -61 -16 -8
-34 -14 -39 -14 -6 0 -18 -7 -28 -16 -9 -8 -26 -16 -38 -17 -11 -1 -21 -4 -21
-7 0 -7 -63 -35 -72 -32 -5 1 -8 -2 -8 -7 0 -5 -15 -14 -32 -22 -18 -7 -49
-23 -69 -35 -20 -13 -40 -20 -43 -17 -3 4 -6 1 -6 -5 0 -7 -4 -12 -9 -12 -15
0 -151 -82 -151 -92 0 -5 -4 -7 -8 -4 -5 3 -41 -17 -80 -44 -40 -27 -72 -46
-72 -42 0 4 -4 2 -8 -4 -4 -5 -36 -30 -72 -55 -36 -24 -73 -52 -82 -62 -9 -10
-20 -19 -25 -19 -9 -1 -47 -30 -133 -100 -31 -26 -60 -45 -64 -41 -3 3 -6 -1
-6 -10 0 -9 -4 -17 -8 -17 -4 0 -27 -18 -51 -40 -23 -22 -45 -40 -47 -40 -3 0
-32 -26 -64 -59 -33 -32 -60 -57 -60 -56 0 3 -67 -63 -72 -71 -2 -2 -39 -42
-83 -88 -44 -45 -100 -107 -125 -136 -25 -30 -62 -73 -82 -95 -21 -23 -38 -45
-38 -49 0 -4 -9 -17 -21 -29 -12 -12 -28 -33 -37 -47 -9 -14 -22 -29 -29 -33
-7 -4 -13 -14 -13 -22 0 -7 -4 -15 -8 -17 -5 -1 -41 -50 -80 -108 -39 -58 -76
-110 -81 -116 -5 -7 -7 -15 -4 -18 4 -3 1 -6 -5 -6 -7 0 -12 -6 -12 -14 0 -8
-4 -16 -8 -18 -4 -1 -21 -25 -36 -53 -119 -210 -143 -255 -138 -260 3 -3 0 -5
-6 -5 -7 0 -12 -7 -12 -15 0 -8 -4 -15 -10 -15 -5 0 -9 -3 -8 -7 3 -15 -14
-63 -23 -63 -5 0 -9 -5 -9 -12 0 -6 -12 -36 -27 -67 -15 -31 -28 -58 -28 -61
-1 -3 -7 -18 -15 -35 -33 -76 -40 -94 -62 -150 -12 -33 -23 -62 -24 -65 0 -3
-4 -12 -7 -20 -13 -32 -87 -258 -90 -276 -1 -10 -6 -25 -10 -31 -5 -7 -6 -13
-3 -13 3 0 -1 -15 -9 -34 -8 -18 -12 -36 -9 -39 3 -3 2 -12 -2 -19 -9 -14 -14
-31 -17 -65 -1 -13 -4 -23 -7 -23 -3 0 -7 -11 -8 -26 -1 -14 -6 -33 -10 -42
-5 -9 -7 -27 -6 -39 0 -13 -2 -23 -6 -23 -4 0 -8 -12 -8 -27 -1 -16 -4 -37 -6
-48 -3 -11 -5 -30 -5 -43 -1 -14 -5 -21 -12 -16 -8 5 -8 1 0 -13 6 -11 8 -23
5 -25 -5 -6 -14 -47 -19 -93 -2 -16 -4 -30 -5 -30 -1 0 -3 -20 -5 -45 -5 -58
-14 -145 -15 -145 -6 0 -14 -235 -15 -410 0 -266 18 -533 40 -587 5 -11 3 -18
-5 -18 -10 0 -10 -3 -1 -14 7 -8 13 -36 15 -62 2 -27 5 -49 6 -49 3 0 19 -93
25 -145 2 -14 4 -25 5 -25 2 0 11 -35 14 -55 1 -9 5 -21 10 -28 4 -6 5 -12 2
-12 -2 0 0 -15 5 -32 6 -18 12 -44 15 -58 3 -14 9 -41 15 -60 6 -19 13 -48 16
-65 2 -16 10 -36 15 -42 6 -7 8 -13 5 -13 -3 0 7 -39 24 -86 16 -47 27 -89 24
-94 -3 -4 2 -11 11 -14 8 -3 12 -11 9 -16 -4 -6 -2 -17 4 -24 6 -7 12 -21 14
-32 2 -10 11 -37 21 -59 10 -22 19 -44 20 -50 4 -15 36 -91 73 -172 9 -21 17
-40 18 -43 2 -10 69 -145 74 -150 3 -3 7 -11 9 -19 2 -8 12 -27 23 -43 11 -15
17 -28 13 -28 -3 0 -2 -6 4 -13 5 -6 25 -39 43 -72 18 -33 40 -70 50 -83 21
-28 18 -55 -19 -152 -13 -36 -25 -72 -27 -80 -2 -8 -17 -55 -35 -105 -17 -49
-32 -94 -34 -100 -1 -5 -4 -14 -7 -20 -4 -5 -12 -34 -20 -62 -7 -29 -16 -53
-21 -53 -4 0 -7 -3 -6 -7 4 -19 -15 -83 -25 -83 -6 0 -8 -3 -5 -6 3 -3 -17
-71 -44 -152 -28 -81 -52 -155 -53 -164 -2 -9 -8 -25 -14 -36 -6 -11 -7 -22
-4 -26 3 -3 1 -6 -6 -6 -7 0 -9 -4 -6 -10 3 -5 2 -10 -2 -10 -5 0 -10 -9 -11
-20 -4 -44 -6 -50 -15 -50 -5 0 -7 -6 -5 -12 3 -7 -1 -24 -8 -37 -7 -14 -11
-28 -8 -33 3 -4 0 -8 -7 -8 -7 0 -10 -3 -7 -6 3 -3 -7 -42 -24 -87 -16 -45
-31 -90 -33 -99 -2 -9 -9 -26 -15 -37 -6 -12 -8 -21 -4 -21 3 0 1 -7 -6 -15
-7 -8 -10 -15 -7 -15 3 0 -1 -17 -10 -37 -8 -21 -17 -49 -20 -62 -2 -14 -9
-31 -15 -38 -6 -7 -7 -13 -4 -13 4 0 1 -10 -6 -23 -7 -12 -11 -25 -10 -29 1
-4 -6 -24 -15 -45 -9 -21 -18 -43 -19 -50 -3 -19 -25 -86 -34 -108 -15 -35
-23 -60 -27 -78 -1 -10 -10 -31 -18 -48 -9 -16 -13 -29 -10 -29 3 0 -1 -15 -9
-34 -8 -19 -12 -37 -8 -40 3 -3 -1 -6 -8 -6 -7 0 -11 -3 -7 -6 3 -4 0 -22 -8
-40 -8 -19 -15 -38 -16 -42 -1 -4 -4 -14 -6 -22 -3 -8 -7 -22 -10 -30 -2 -8
-4 -16 -4 -17 0 -2 -6 -18 -14 -37 -8 -18 -11 -36 -8 -40 4 -3 0 -6 -7 -6 -7
0 -10 -3 -7 -7 4 -3 1 -13 -6 -21 -14 -17 -31 -22 178 46 77 24 147 46 155 47
8 2 16 4 18 5 1 2 5 3 10 5 4 1 14 5 23 9 9 4 28 8 42 10 14 1 32 8 40 15 8 6
19 11 23 10 5 -1 17 1 26 4 20 8 44 16 56 18 4 1 45 15 92 31 75 27 95 33 135
41 6 2 16 6 23 10 6 5 12 5 12 1 0 -3 7 -1 15 6 8 7 15 10 15 7 0 -3 12 0 27
8 15 8 30 12 35 9 4 -3 8 0 8 5 0 6 3 10 8 9 17 -4 82 15 82 24 0 5 4 6 10 3
5 -3 16 -3 22 2 7 4 18 8 23 9 6 1 62 19 125 40 63 21 120 39 125 40 6 2 19 5
30 8 11 2 32 9 46 14 15 6 30 8 33 5 3 -4 6 -1 6 5 0 7 3 11 7 11 5 -1 11 0
16 1 4 1 12 4 17 5 6 1 12 4 15 5 3 1 8 3 13 5 4 1 14 4 22 7 8 4 62 20 120
38 58 17 116 36 130 42 14 6 32 12 40 13 8 1 42 11 75 22 98 33 150 48 158 45
4 -1 7 2 7 6 0 5 6 9 13 9 6 0 55 15 107 32 52 18 104 35 115 37 26 7 37 10
55 17 68 26 122 38 133 29 14 -11 196 -103 245 -123 17 -8 32 -17 32 -20 0 -3
6 -6 13 -6 6 0 37 -11 67 -25 76 -34 94 -41 103 -40 4 1 7 -3 7 -10 0 -6 3 -8
7 -5 3 4 12 2 20 -4 7 -6 13 -8 13 -4 0 4 6 2 14 -4 8 -7 22 -14 32 -16 11 -2
47 -15 82 -29 34 -13 64 -25 65 -25 3 0 34 -10 55 -18 9 -3 21 -5 26 -4 4 1
13 -3 20 -8 6 -5 23 -12 36 -14 14 -2 32 -7 40 -10 8 -3 42 -13 75 -22 33 -9
67 -18 75 -20 8 -2 42 -10 75 -17 33 -7 63 -17 67 -23 5 -6 8 -4 8 5 0 11 2
12 8 3 4 -7 29 -14 55 -15 26 -2 47 -5 47 -8 0 -3 10 -7 23 -8 36 -5 62 -9 62
-11 0 -2 74 -12 108 -14 9 -1 17 -4 17 -7 0 -3 17 -6 38 -6 20 -1 60 -5 87 -8
28 -4 75 -9 105 -11 30 -2 55 -4 55 -5 0 -1 41 -4 90 -7 182 -11 569 -5 698
12 23 3 62 8 87 11 51 5 87 10 180 25 36 6 77 13 91 15 14 2 47 8 73 14 26 6
52 8 57 5 5 -4 9 -2 9 3 0 5 6 9 13 9 6 0 32 5 56 11 25 6 48 9 52 6 4 -2 9 0
11 5 1 5 19 11 38 14 40 6 208 55 294 86 32 11 63 18 67 15 5 -3 9 0 9 5 0 6
8 11 18 11 10 0 23 5 30 12 7 7 12 9 12 6 0 -4 12 -1 27 7 15 8 30 12 35 9 4
-3 8 0 8 7 0 7 3 10 6 7 3 -4 55 15 114 42 60 26 111 45 114 42 4 -3 6 0 6 6
0 7 7 12 16 12 9 0 29 9 45 21 16 11 29 18 29 15 0 -4 38 14 85 39 47 25 85
42 85 38 0 -4 4 -3 8 2 7 11 45 34 147 90 28 16 52 31 55 34 7 8 41 29 65 40
12 5 42 25 68 45 26 20 49 36 51 36 11 0 126 83 126 91 0 6 5 7 10 4 6 -3 13
1 16 9 3 9 11 16 16 16 24 0 308 241 461 392 55 54 104 98 110 98 6 0 8 3 4 6
-3 3 9 20 26 38 18 18 55 58 82 90 28 32 62 71 77 87 15 16 25 29 23 29 -5 0
4 11 58 69 15 16 27 35 27 40 0 6 5 11 10 11 6 0 10 4 10 10 0 9 25 42 58 76
6 7 12 15 12 18 0 4 23 37 50 75 28 38 50 72 50 75 0 4 9 16 20 28 11 12 20
28 20 35 0 7 4 13 8 13 5 0 17 18 27 40 10 22 21 40 25 40 3 0 21 28 39 62 41
80 65 122 71 128 6 5 55 107 60 125 2 6 10 16 17 23 7 8 11 18 8 23 -4 5 -2 9
2 9 7 0 34 56 33 68 0 1 7 17 17 35 9 17 18 34 18 37 0 3 9 20 18 38 10 17 15
32 11 32 -4 0 -1 7 6 15 7 8 9 15 4 15 -5 0 -3 4 5 9 8 5 16 18 17 29 2 11 8
30 13 43 5 13 10 29 11 34 1 6 5 15 10 20 10 13 45 118 42 128 -1 4 3 7 10 7
6 0 9 3 5 6 -3 3 -1 18 5 33 19 49 80 266 81 291 1 14 5 27 9 30 4 3 9 15 11
25 1 11 6 26 10 33 5 7 3 12 -5 12 -10 0 -10 2 1 9 7 5 11 13 7 19 -3 6 -2 13
3 17 5 3 10 13 9 23 0 9 5 43 12 76 6 32 12 67 13 77 1 10 4 19 7 19 3 0 6 8
7 18 3 66 8 102 15 102 5 0 4 9 -2 19 -5 11 -6 21 -1 23 10 3 20 92 24 200 1
38 4 68 7 68 7 0 9 75 9 330 1 232 -3 322 -13 338 -4 7 -2 12 6 12 8 0 9 3 3
8 -5 4 -10 25 -10 47 1 22 -1 44 -4 49 -2 5 -6 27 -7 47 -4 49 -10 105 -18
149 -3 19 -8 49 -10 65 -3 17 -7 41 -11 55 -3 14 -8 41 -11 60 -9 57 -26 142
-39 190 -1 3 -5 23 -10 45 -13 56 -12 55 -15 58 -2 3 -11 40 -12 55 -1 6 -5
12 -10 12 -5 0 -7 4 -4 9 3 5 -3 34 -14 65 -10 31 -16 56 -12 56 3 0 1 5 -6
12 -7 7 -12 22 -12 33 0 12 -3 25 -7 29 -4 3 -8 14 -9 23 -2 10 -7 26 -12 38
-17 34 -53 139 -51 149 0 5 -3 12 -8 15 -4 3 -14 24 -22 46 -8 22 -27 67 -42
101 -32 69 -46 105 -47 118 0 5 -4 12 -9 15 -9 6 -86 161 -87 174 -1 4 -5 11
-11 15 -5 4 -11 12 -12 18 -1 5 -22 45 -47 87 -25 43 -46 80 -46 83 0 11 -193
299 -208 312 -9 6 -13 12 -9 12 8 0 -3 16 -40 56 -12 13 -20 24 -17 24 7 0
-76 101 -91 112 -5 4 -6 8 -2 8 4 0 -3 11 -17 24 -15 13 -26 26 -26 30 0 4
-10 17 -22 30 -13 13 -52 56 -88 96 -87 97 -282 292 -361 360 -35 30 -66 58
-67 62 -2 5 -8 6 -13 2 -5 -3 -9 2 -9 10 0 9 -4 16 -10 16 -5 0 -21 11 -35 25
-14 14 -25 23 -25 20 0 -3 -16 9 -36 27 -20 18 -37 31 -38 28 -1 -3 -13 6 -27
20 -26 26 -55 48 -100 78 -15 9 -67 45 -117 80 -50 34 -96 62 -102 62 -5 0
-10 5 -10 10 0 6 -7 10 -15 10 -8 0 -15 4 -15 9 0 5 -8 11 -17 15 -10 3 -40
19 -68 36 -27 17 -57 34 -65 37 -8 4 -17 9 -20 12 -11 13 -90 52 -90 44 0 -4
-4 -3 -8 3 -4 6 -37 26 -74 44 -38 19 -68 38 -68 43 0 4 -4 6 -9 2 -5 -3 -40
10 -78 29 -37 19 -77 36 -88 38 -11 1 -26 9 -33 16 -7 6 -20 12 -28 12 -8 0
-22 4 -32 9 -20 11 -52 23 -71 27 -8 1 -17 6 -20 11 -3 4 -17 10 -31 11 -14 2
-26 8 -28 13 -2 5 -14 9 -26 9 -13 0 -26 3 -30 8 -4 4 -11 7 -14 7 -4 1 -54
16 -111 34 -57 18 -112 33 -122 34 -11 1 -19 4 -19 8 0 4 -15 9 -32 12 -18 3
-62 13 -98 22 -36 8 -76 18 -90 20 -31 5 -65 13 -65 15 0 2 -34 9 -80 15 -53
8 -80 13 -80 16 0 1 -13 3 -30 4 -16 2 -30 4 -30 5 0 1 -11 3 -25 4 -14 2 -54
7 -90 11 -36 5 -77 9 -92 9 -16 1 -28 3 -28 6 0 7 -62 9 -400 13 -168 2 -325
1 -350 -2z m470 -745 c161 -7 248 -15 350 -30 19 -3 55 -8 79 -11 25 -3 54 -8
65 -10 12 -3 35 -7 51 -10 17 -4 35 -7 40 -9 6 -1 37 -9 70 -16 33 -8 62 -14
65 -15 3 -1 22 -5 43 -9 20 -5 37 -12 37 -17 0 -5 7 -6 15 -3 8 4 23 0 32 -7
14 -12 16 -12 8 1 -7 12 -3 11 18 -3 15 -9 27 -15 27 -13 0 3 44 -11 98 -30
53 -19 104 -37 112 -39 8 -2 29 -9 45 -16 17 -7 33 -13 38 -14 4 -2 9 -4 12
-5 3 -1 8 -3 13 -4 4 -1 17 -7 30 -15 13 -7 33 -14 45 -17 12 -2 23 -8 25 -14
2 -6 8 -8 13 -4 5 3 9 0 9 -5 0 -6 3 -10 8 -10 4 1 10 0 15 -1 4 -1 10 -3 15
-4 15 -3 293 -147 302 -156 3 -3 34 -23 70 -44 68 -41 142 -87 150 -96 3 -3
16 -11 30 -18 14 -7 40 -26 59 -42 18 -17 41 -30 49 -30 8 0 12 -3 9 -7 -4 -3
10 -17 31 -31 38 -26 122 -92 157 -124 11 -10 53 -49 94 -86 147 -133 274
-267 390 -412 42 -52 79 -96 84 -98 4 -2 7 -9 7 -17 0 -7 7 -18 15 -25 8 -6
30 -36 50 -65 19 -30 42 -61 51 -69 8 -9 13 -16 9 -16 -3 0 12 -26 33 -57 22
-32 47 -74 57 -93 10 -19 21 -37 24 -40 11 -9 162 -301 167 -322 1 -5 3 -10 4
-13 1 -3 3 -8 4 -12 1 -5 15 -35 31 -68 16 -33 28 -66 27 -72 -2 -7 1 -13 6
-13 5 0 9 -6 10 -12 1 -7 28 -92 61 -188 32 -97 61 -190 64 -207 3 -18 8 -37
12 -43 4 -6 8 -24 10 -38 2 -15 6 -40 10 -57 4 -16 8 -37 10 -45 2 -8 4 -15 5
-15 1 0 3 -12 5 -28 2 -15 8 -51 14 -80 22 -110 36 -229 47 -382 6 -98 7 -418
1 -500 -11 -130 -21 -226 -31 -295 -4 -25 -8 -56 -10 -70 -1 -14 -6 -32 -10
-39 -4 -7 -5 -15 -2 -18 3 -3 -1 -21 -9 -40 -8 -18 -10 -31 -5 -28 6 4 7 -3 1
-18 -5 -13 -12 -37 -15 -53 -2 -16 -8 -40 -11 -54 -4 -14 -7 -31 -7 -37 -1 -7
-4 -13 -8 -13 -5 0 -7 -10 -12 -65 -1 -14 -5 -25 -8 -25 -3 0 -7 -8 -7 -17 -1
-10 -16 -58 -33 -108 -17 -49 -32 -97 -35 -105 -9 -33 -48 -136 -60 -161 -8
-14 -11 -29 -8 -33 4 -3 1 -6 -5 -6 -7 0 -12 -5 -12 -10 0 -6 -7 -27 -17 -48
-9 -20 -17 -39 -18 -42 -6 -23 -90 -187 -99 -192 -6 -4 -7 -8 -3 -8 5 0 0 -15
-11 -32 -21 -34 -37 -62 -84 -143 -16 -26 -28 -51 -28 -56 0 -5 -4 -9 -10 -9
-5 0 -10 -7 -10 -15 0 -8 -4 -15 -10 -15 -5 0 -10 -6 -10 -14 0 -8 -4 -16 -8
-18 -4 -1 -19 -21 -32 -43 -13 -22 -28 -44 -32 -50 -5 -5 -38 -50 -75 -100
-37 -49 -69 -92 -73 -95 -3 -3 -16 -18 -29 -35 -84 -110 -441 -474 -441 -451
0 2 -17 -12 -37 -33 -21 -20 -74 -64 -118 -96 -44 -33 -82 -63 -85 -66 -3 -3
-27 -21 -55 -39 -27 -19 -52 -38 -53 -42 -2 -4 -8 -6 -13 -2 -5 3 -9 1 -9 -5
0 -5 -9 -13 -20 -16 -11 -3 -26 -12 -32 -19 -17 -17 -186 -116 -198 -116 -5 0
-14 -8 -19 -17 -6 -10 -11 -15 -11 -10 0 4 -11 0 -25 -9 -14 -9 -25 -12 -25
-8 0 5 -4 4 -8 -2 -9 -14 -189 -104 -208 -104 -8 0 -14 -5 -14 -10 0 -6 -3
-10 -7 -9 -13 2 -53 -13 -99 -36 -24 -12 -40 -17 -37 -11 4 5 -7 0 -24 -12
-17 -12 -33 -19 -36 -16 -3 3 -12 2 -19 -2 -14 -9 -73 -32 -98 -38 -8 -3 -35
-11 -60 -19 -74 -24 -159 -49 -174 -51 -9 -1 -18 -5 -22 -8 -3 -4 -12 -4 -20
-1 -8 3 -14 1 -14 -3 0 -5 -11 -10 -25 -11 -14 -1 -36 -4 -50 -5 -14 -1 -25
-5 -25 -8 0 -4 -6 -7 -12 -8 -18 -1 -79 -11 -108 -17 -14 -3 -41 -8 -60 -10
-45 -7 -90 -14 -115 -19 -23 -4 -129 -15 -225 -23 -89 -7 -443 -10 -454 -5 -5
3 -41 7 -80 8 -80 3 -150 10 -216 19 -25 4 -58 8 -75 10 -16 2 -30 4 -30 5 0
1 -11 4 -25 6 -80 11 -119 19 -140 27 -8 3 -31 8 -50 11 -46 7 -82 15 -170 41
-30 8 -64 17 -76 20 -12 3 -79 25 -150 50 -71 25 -135 46 -141 47 -7 1 -13 5
-13 10 0 4 -3 7 -7 6 -13 -3 -83 25 -83 34 0 4 -7 5 -15 2 -8 -4 -15 -1 -15 5
0 6 -3 10 -7 9 -17 -3 -302 136 -354 173 -15 10 -30 19 -34 19 -6 0 -89 51
-147 91 -27 19 -28 19 -115 -10 -48 -16 -135 -43 -193 -61 -58 -18 -109 -35
-115 -39 -5 -3 -18 -6 -27 -7 -10 -1 -20 -2 -23 -3 -3 0 -8 -1 -11 0 -4 0 -10
-4 -13 -10 -4 -6 -16 -12 -26 -14 -11 -2 -60 -17 -110 -32 -49 -16 -92 -29
-95 -30 -3 -1 -52 -17 -110 -35 -58 -19 -108 -35 -112 -36 -5 -1 -10 -2 -13
-3 -3 0 -6 0 -7 1 -2 1 -13 -4 -26 -11 -13 -7 -31 -14 -40 -16 -9 -2 -57 -17
-107 -33 -49 -16 -124 -40 -165 -52 -41 -12 -83 -26 -93 -31 -10 -5 -22 -7
-27 -4 -4 3 -11 -1 -13 -7 -4 -8 -6 -7 -6 4 -1 14 30 111 56 178 3 8 7 20 8
25 3 14 34 107 42 125 3 8 7 20 8 25 2 6 19 56 38 113 19 56 32 102 28 102 -3
0 -1 4 6 8 6 4 14 19 16 33 8 40 41 134 50 137 4 2 5 7 2 12 -3 4 4 29 15 54
10 25 17 46 14 46 -2 0 2 13 11 30 9 16 13 30 9 30 -4 0 -2 6 3 13 8 10 17 35
28 77 0 3 9 30 20 60 10 30 20 60 21 65 1 6 8 24 15 40 6 17 14 36 16 42 1 7
5 19 6 25 2 7 7 20 10 28 32 87 33 109 7 138 -11 12 -20 26 -20 32 0 5 -4 10
-10 10 -5 0 -10 7 -10 15 0 8 -4 15 -9 15 -5 0 -14 13 -21 30 -7 16 -15 30
-19 30 -3 0 -19 26 -36 58 -16 31 -35 60 -41 64 -7 4 -15 19 -18 33 -4 14 -11
25 -17 25 -6 0 -7 5 -4 10 3 6 1 10 -5 10 -6 0 -8 5 -5 10 3 6 1 10 -5 10 -6
0 -8 5 -5 10 3 6 1 10 -5 10 -6 0 -8 5 -5 10 3 6 2 10 -3 10 -7 0 -121 224
-127 250 -2 7 -24 59 -40 95 -34 77 -110 295 -107 308 1 4 -3 7 -9 7 -5 0 -7
4 -4 10 3 5 -2 31 -11 57 -9 27 -20 64 -24 83 -5 19 -11 46 -15 60 -4 14 -8
32 -10 40 -1 8 -5 22 -8 30 -3 8 -9 33 -12 55 -4 22 -10 54 -13 70 -3 17 -5
40 -6 53 0 12 -3 22 -8 22 -4 0 -5 14 -3 30 2 17 0 30 -4 30 -4 0 -6 14 -5 30
1 17 -1 30 -4 30 -4 0 -8 19 -8 43 -1 23 -6 85 -10 137 -5 52 -9 194 -9 315 0
224 7 344 29 500 3 22 8 56 11 75 3 19 8 53 12 75 4 22 6 43 5 48 -1 4 1 7 6
7 4 0 8 16 9 36 1 20 5 44 9 53 6 15 15 61 17 89 0 6 3 12 7 12 3 0 7 14 8 32
2 17 8 38 15 46 7 8 11 24 9 35 -2 10 0 17 5 14 5 -3 8 7 7 24 -1 16 1 29 5
29 4 0 8 6 9 13 2 35 97 298 133 368 10 20 15 39 12 43 -4 3 -1 6 5 6 7 0 12
5 12 11 0 14 81 183 90 189 5 3 10 14 12 25 1 11 10 25 18 32 8 7 12 13 8 13
-4 0 8 25 27 55 19 30 35 57 35 61 0 4 11 22 25 40 14 18 25 35 25 38 0 11
202 297 235 332 26 28 55 65 55 69 0 2 10 15 23 28 12 13 60 66 107 117 76 82
113 120 210 210 67 63 110 100 180 155 41 33 77 62 80 65 14 15 80 60 80 56 0
-4 8 2 18 12 28 26 62 52 67 52 3 0 27 15 53 33 26 18 54 36 62 40 8 4 47 28
85 52 39 25 82 50 98 56 15 6 27 15 27 20 0 5 3 8 8 7 4 -1 60 24 124 55 65
32 119 57 121 55 2 -2 11 3 20 11 10 7 17 10 17 5 0 -5 4 -4 8 2 6 9 111 56
135 60 4 1 9 2 12 3 3 0 8 1 11 0 4 0 10 3 13 8 5 7 168 64 226 80 6 1 28 7
50 13 22 6 47 13 55 15 8 2 15 4 15 5 0 2 36 10 58 12 9 1 17 6 17 11 0 4 3 6
8 3 4 -2 34 2 67 10 33 8 78 17 100 20 21 3 43 8 49 11 5 3 25 7 45 9 36 3 76
8 161 19 83 12 124 14 295 21 94 4 172 8 173 10 2 1 9 1 15 -1 7 -2 64 -6 127
-9z"/>
<path d="M3294 7038 c-15 -4 -31 -5 -35 -2 -4 2 -10 0 -14 -6 -3 -5 -17 -10
-30 -10 -13 0 -25 -3 -27 -7 -1 -5 -21 -17 -43 -28 -43 -20 -275 -249 -275
-271 0 -7 -3 -14 -8 -16 -13 -5 -72 -91 -72 -105 0 -7 -4 -13 -10 -13 -5 0
-10 -7 -10 -15 0 -8 -5 -15 -10 -15 -6 0 -9 -3 -8 -7 1 -5 -7 -28 -19 -53 -35
-75 -52 -120 -46 -120 3 0 0 -7 -7 -15 -7 -8 -9 -15 -6 -15 4 0 2 -8 -3 -18
-6 -11 -12 -30 -15 -43 -3 -13 -8 -35 -11 -49 -3 -14 -8 -45 -11 -70 -3 -25
-9 -58 -13 -75 -9 -37 -7 -263 3 -325 20 -126 46 -234 80 -330 15 -41 32 -91
39 -110 6 -19 15 -38 20 -41 5 -3 9 -10 9 -15 1 -23 86 -204 101 -215 5 -3 9
-10 9 -15 1 -17 32 -74 40 -74 4 0 8 -5 8 -11 0 -6 14 -30 30 -54 17 -24 30
-48 30 -53 0 -6 3 -12 8 -14 8 -3 35 -43 107 -160 27 -43 52 -78 57 -78 4 0 7
-3 7 -7 -3 -20 2 -34 11 -28 6 3 10 1 10 -5 0 -13 108 -174 140 -207 11 -13
18 -23 15 -23 -3 0 4 -10 15 -22 11 -13 43 -52 71 -88 27 -36 69 -87 92 -114
23 -27 48 -58 56 -68 58 -83 493 -513 506 -500 3 3 5 1 5 -5 0 -13 209 -179
221 -176 5 2 9 -1 9 -6 0 -10 212 -155 265 -181 17 -8 35 -22 42 -30 7 -8 13
-10 13 -5 0 6 3 6 8 0 9 -14 273 -145 290 -145 6 0 12 -4 12 -10 0 -5 7 -7 15
-4 8 4 15 1 15 -5 0 -6 8 -11 18 -11 10 0 22 -4 28 -8 5 -5 41 -21 79 -37 39
-15 88 -36 110 -45 77 -33 154 -62 160 -61 3 1 19 -6 36 -15 17 -8 38 -17 47
-19 28 -7 117 -40 122 -45 3 -3 12 -5 20 -5 8 1 26 -4 40 -11 14 -7 52 -20 85
-28 58 -16 73 -20 125 -31 14 -3 36 -8 50 -11 14 -3 45 -6 70 -8 25 -1 50 -5
56 -9 6 -3 14 -4 17 0 3 3 30 7 59 9 29 2 60 6 68 10 8 3 35 7 60 10 25 3 56
7 70 10 14 3 40 7 58 10 58 8 265 96 347 147 171 107 302 231 342 325 9 20 17
39 18 42 0 3 3 10 6 15 8 12 29 78 28 85 0 3 5 19 11 35 11 28 15 45 26 100 2
11 7 39 12 63 5 23 7 42 4 42 -2 0 0 6 6 13 7 8 7 18 2 27 -5 8 -5 21 1 32 5
10 6 18 2 18 -4 0 -8 21 -8 46 -1 39 -6 50 -35 77 -35 32 -102 72 -172 104
-21 9 -38 20 -38 25 0 5 -4 6 -10 3 -5 -3 -10 -1 -10 6 0 7 -3 9 -7 6 -3 -4
-11 -3 -17 2 -10 9 -73 43 -186 102 -25 13 -48 29 -52 34 -4 6 -8 6 -8 1 0 -5
-6 -4 -12 2 -7 5 -76 43 -153 83 -77 40 -142 75 -145 78 -3 3 -14 8 -25 9 -11
2 -22 7 -25 11 -10 13 -168 79 -175 73 -3 -4 -10 0 -15 8 -6 8 -10 10 -10 4 0
-5 -13 -9 -30 -8 -34 2 -87 -34 -123 -83 -24 -33 -77 -98 -112 -138 -11 -12
-40 -46 -65 -75 -135 -155 -226 -247 -267 -268 -34 -18 -102 -4 -183 37 -44
23 -80 39 -80 35 0 -3 -7 2 -16 10 -8 9 -20 14 -25 11 -5 -4 -9 -2 -9 2 0 8
-62 36 -67 31 -1 -2 -8 6 -16 16 -8 11 -19 16 -25 12 -7 -4 -12 -3 -12 2 0 4
-19 19 -42 31 -66 35 -111 62 -178 109 -34 23 -66 42 -71 42 -5 0 -9 4 -9 9 0
5 -17 20 -37 32 -21 13 -43 28 -49 34 -6 5 -28 24 -49 40 -20 17 -51 42 -68
58 -17 15 -35 27 -40 27 -4 0 -5 5 -2 10 3 6 1 10 -5 10 -21 0 -285 275 -337
350 -9 14 -26 33 -36 43 -11 9 -17 17 -14 17 4 0 0 8 -8 18 -8 9 -28 35 -44
57 -17 22 -35 46 -41 53 -6 6 -7 12 -3 12 4 0 3 4 -3 8 -14 9 -124 179 -124
192 0 4 -3 10 -7 12 -5 2 -21 28 -37 58 -16 30 -34 58 -40 62 -6 4 -7 8 -2 8
5 0 4 6 -1 13 -16 19 -24 82 -14 108 5 13 9 27 10 31 1 4 34 41 74 81 95 97
185 200 220 250 15 23 33 45 40 49 7 4 9 8 5 8 -4 0 6 26 22 59 35 68 37 111
11 184 -33 89 -79 211 -92 242 -15 36 -14 32 -24 70 -4 17 -13 36 -19 44 -6 8
-10 16 -8 18 3 3 -23 77 -59 168 -14 34 -20 55 -21 73 -1 6 -5 12 -10 12 -4 0
-7 3 -6 8 1 4 -4 20 -10 35 -7 16 -12 33 -12 38 0 5 -4 17 -9 27 -6 9 -22 51
-36 92 -31 86 -69 163 -99 198 -19 21 -67 53 -81 52 -3 0 -6 1 -7 1 -2 1 -28
3 -58 4 -30 1 -91 5 -135 9 -130 11 -143 12 -171 4z"/>
</g>
</svg>
